<?xml version="1.0" standalone="no"?>
<!DOCTYPE svg PUBLIC "-//W3C//DTD SVG 20010904//EN"
 "http://www.w3.org/TR/2001/REC-SVG-20010904/DTD/svg10.dtd">
<svg version="1.0" xmlns="http://www.w3.org/2000/svg"
 width="512.000000pt" height="512.000000pt" viewBox="0 0 512.000000 512.000000"
 preserveAspectRatio="xMidYMid meet">
<metadata>
Created by potrace 1.14, written by Peter Selinger 2001-2017
</metadata>
<g transform="translate(0.000000,512.000000) scale(0.100000,-0.100000)"
fill="#000000" stroke="none">
<path d="M0 2560 l0 -2560 2560 0 2560 0 0 2560 0 2560 -2560 0 -2560 0 0
-2560z m1436 1995 c43 -8 93 -20 111 -26 l33 -11 0 -154 0 -154 -59 30 c-234
119 -526 77 -526 -75 0 -63 51 -113 175 -172 245 -116 285 -138 347 -196 38
-36 73 -80 90 -115 26 -53 28 -66 28 -182 0 -117 -2 -129 -28 -182 -52 -107
-156 -185 -297 -224 -52 -15 -102 -19 -250 -18 -194 0 -270 11 -367 54 l-43
19 0 160 c0 89 3 161 6 161 3 0 20 -11 37 -24 218 -163 597 -148 597 24 0 82
-47 128 -205 200 -221 101 -256 121 -319 183 -70 70 -101 126 -117 213 -37
198 76 389 271 459 124 45 366 59 516 30z m2173 -37 c45 -143 311 -1042 317
-1073 l7 -40 11 55 c7 30 81 288 166 573 l155 517 172 0 c95 0 173 -3 173 -7
0 -5 -112 -332 -249 -728 l-248 -720 -189 0 -189 0 -101 300 c-56 165 -168
492 -248 728 l-145 427 179 0 178 0 11 -32z m-1013 -606 c62 -32 97 -65 128
-121 77 -142 19 -314 -130 -387 -48 -24 -63 -26 -132 -22 -46 3 -91 12 -111
22 -50 26 -117 100 -136 150 -22 56 -17 175 9 227 33 68 109 131 181 150 50
13 147 3 191 -19z m-1151 -1847 c39 -7 82 -18 98 -24 l27 -11 0 -159 0 -160
-63 30 c-114 53 -258 72 -377 49 -283 -54 -425 -365 -309 -675 31 -84 130
-183 214 -215 127 -48 323 -35 463 30 35 16 66 30 68 30 3 0 3 -69 2 -152 l-3
-153 -65 -23 c-104 -37 -247 -55 -385 -48 -144 7 -225 25 -325 73 -99 48 -219
166 -273 270 -96 184 -112 449 -41 663 88 264 324 454 607 490 88 11 267 3
362 -15z m2478 -355 c125 -192 269 -414 320 -492 l92 -143 -3 493 -3 492 160
0 161 0 0 -725 0 -725 -171 2 -172 3 -236 360 c-130 198 -279 426 -331 506
l-95 145 3 -508 3 -508 -156 0 -155 0 0 725 0 725 178 0 177 0 228 -350z
m-1370 -293 c91 -54 140 -138 141 -242 1 -150 -106 -269 -253 -282 -186 -17
-334 148 -300 332 17 92 89 179 175 211 63 23 181 14 237 -19z"/>
</g>
</svg>
